name ./resultDataOpenSim/trcMotMarkerGrf/sub10/grf-15-03.mot
datacolumns 19
datarows 12
range 1.46000000 1.50400000
endheader

                time	     ground_force_vx	     ground_force_vy	     ground_force_vz	     ground_force_px	     ground_force_py	     ground_force_pz	   l_ground_force_vx	   l_ground_force_vy	   l_ground_force_vz	   l_ground_force_px	   l_ground_force_py	   l_ground_force_pz	     ground_torque_x	     ground_torque_y	     ground_torque_z	   l_ground_torque_x	   l_ground_torque_y	   l_ground_torque_z	
          1.46000000	         -4.91910744	        657.64316825	         -3.94050808	          0.87276871	          0.00000000	         -0.10172894	          0.00000000	          0.00000000	          0.00000000	          0.00000000	          0.00000000	          0.00000000	          0.00000000	          4.05405525	          0.00000000	          0.00000000	          0.00000000	          0.00000000	
          1.46400000	          0.50833895	        647.53044855	         -4.82300627	          0.87238460	          0.00000000	         -0.10176577	          0.00000000	          0.00000000	          0.00000000	          0.00000000	          0.00000000	          0.00000000	          0.00000000	          4.07563924	          0.00000000	          0.00000000	          0.00000000	          0.00000000	
          1.46800000	          5.28274701	        637.36683893	         -6.33836683	          0.87203390	          0.00000000	         -0.10176510	          0.00000000	          0.00000000	          0.00000000	          0.00000000	          0.00000000	          0.00000000	          0.00000000	          4.08483376	          0.00000000	          0.00000000	          0.00000000	          0.00000000	
          1.47200000	          8.98710131	        627.33982511	         -8.31092009	          0.87176716	          0.00000000	         -0.10172126	          0.00000000	          0.00000000	          0.00000000	          0.00000000	          0.00000000	          0.00000000	          0.00000000	          4.05419636	          0.00000000	          0.00000000	          0.00000000	          0.00000000	
          1.47600000	         11.48729666	        617.65351918	        -10.49685240	          0.87160463	          0.00000000	         -0.10163199	          0.00000000	          0.00000000	          0.00000000	          0.00000000	          0.00000000	          0.00000000	          0.00000000	          3.96889591	          0.00000000	          0.00000000	          0.00000000	          0.00000000	
          1.48000000	         12.94648137	        608.49789816	        -12.63445836	          0.87152842	          0.00000000	         -0.10150711	          0.00000000	          0.00000000	          0.00000000	          0.00000000	          0.00000000	          0.00000000	          0.00000000	          3.82838322	          0.00000000	          0.00000000	          0.00000000	          0.00000000	
          1.48400000	         13.76485176	        600.02702470	        -14.49738113	          0.87149756	          0.00000000	         -0.10135968	          0.00000000	          0.00000000	          0.00000000	          0.00000000	          0.00000000	          0.00000000	          0.00000000	          3.64452065	          0.00000000	          0.00000000	          0.00000000	          0.00000000	
          1.48800000	         14.47196651	        592.34010709	        -15.93567081	          0.87146690	          0.00000000	         -0.10119516	          0.00000000	          0.00000000	          0.00000000	          0.00000000	          0.00000000	          0.00000000	          0.00000000	          3.43760553	          0.00000000	          0.00000000	          0.00000000	          0.00000000	
          1.49200000	         15.59182168	        585.47028228	        -16.90128333	          0.87138414	          0.00000000	         -0.10102083	          0.00000000	          0.00000000	          0.00000000	          0.00000000	          0.00000000	          0.00000000	          0.00000000	          3.23153464	          0.00000000	          0.00000000	          0.00000000	          0.00000000	
          1.49600000	         17.50753572	        579.40128994	        -17.45789000	          0.87119903	          0.00000000	         -0.10084892	          0.00000000	          0.00000000	          0.00000000	          0.00000000	          0.00000000	          0.00000000	          0.00000000	          3.04884939	          0.00000000	          0.00000000	          0.00000000	          0.00000000	
          1.50000000	         20.36786752	        574.12046683	        -17.76599388	          0.87088784	          0.00000000	         -0.10069057	          0.00000000	          0.00000000	          0.00000000	          0.00000000	          0.00000000	          0.00000000	          0.00000000	          2.90620391	          0.00000000	          0.00000000	          0.00000000	          0.00000000	
          1.50400000	         24.07094090	        569.67086924	        -18.04346490	          0.87045626	          0.00000000	         -0.10054180	          0.00000000	          0.00000000	          0.00000000	          0.00000000	          0.00000000	          0.00000000	          0.00000000	          2.81105659	          0.00000000	          0.00000000	          0.00000000	          0.00000000	
